<?xml version="1.0" encoding="UTF-8"?>
<svg xmlns="http://www.w3.org/2000/svg" version="1.1" viewBox="0 0 360 360">
  <defs>
    <style>
      .cls-1 {
        stroke: #231f20;
        stroke-miterlimit: 10;
      }
    </style>
  </defs>
  <!-- Generator: Adobe Illustrator 28.7.10, SVG Export Plug-In . SVG Version: 1.2.0 Build 236)  -->
  <g>
    <g id="Layer_1">
      <path class="cls-1" d="M180,2.7C82.08,2.7,2.7,82.08,2.7,180s79.38,177.3,177.3,177.3,177.3-79.38,177.3-177.3S277.92,2.7,180,2.7ZM355.26,172.36l-8.77.55-.42-6.74,8.76-.56.43,6.75ZM352.92,150.45l-8.63,1.65-1.27-6.64,8.63-1.65,1.27,6.64ZM347.85,129.02l-8.35,2.71-2.09-6.43,8.35-2.71,2.09,6.43ZM340.14,108.38l-7.95,3.74-2.88-6.12,7.95-3.74,2.88,6.12ZM326.28,83.17l3.62,5.7-7.42,4.71-3.62-5.71,7.42-4.7ZM312.99,65.6l4.31,5.21-6.77,5.59-4.31-5.2,6.77-5.6ZM297.6,49.83l4.93,4.63-6.02,6.4-4.92-4.63,6.01-6.4ZM280.36,36.12l5.47,3.97-5.17,7.11-5.46-3.98,5.16-7.1ZM261.53,24.67l5.93,3.26-4.23,7.7-5.93-3.26,4.23-7.7ZM260.62,81.7c21.43-12.38,48.85-5.03,61.22,16.41,12.38,21.43,5.04,48.85-16.4,61.22-21.44,12.38-48.85,5.04-61.23-16.4s-5.03-48.85,16.41-61.23ZM241.42,15.68l6.29,2.49-3.23,8.17-6.29-2.49,3.23-8.17ZM198.63,5.57l6.71.84-1.1,8.72-6.71-.85,1.1-8.71ZM176.62,4.61h6.76v8.78h-6.76V4.61ZM161.37,5.57l1.1,8.71-6.7.85-1.11-8.72,6.71-.84ZM180,16.21c24.75,0,44.82,20.07,44.82,44.82s-20.07,44.83-44.82,44.83-44.82-20.07-44.82-44.83,20.07-44.82,44.82-44.82ZM139.66,9.28l2.18,8.51-6.55,1.68-2.18-8.51,6.55-1.68ZM98.47,24.67l4.23,7.7-5.93,3.26-4.23-7.7,5.93-3.26ZM79.64,36.12l5.16,7.1-5.46,3.98-5.17-7.11,5.47-3.97ZM62.4,49.83l6.01,6.4-4.92,4.63-6.02-6.4,4.93-4.63ZM99.38,81.7c21.44,12.38,28.79,39.79,16.41,61.23-12.38,21.44-39.79,28.78-61.23,16.4-21.44-12.37-28.78-39.79-16.4-61.22,12.37-21.44,39.79-28.79,61.22-16.41ZM47.01,65.6l6.77,5.6-4.31,5.2-6.77-5.59,4.31-5.21ZM33.72,83.17l7.42,4.7-3.62,5.71-7.42-4.71,3.62-5.7ZM22.74,102.26l7.95,3.74-2.88,6.12-7.95-3.74,2.88-6.12ZM14.24,122.59l8.35,2.71-2.09,6.43-8.35-2.71,2.09-6.43ZM8.35,143.81l8.63,1.65-1.27,6.64-8.63-1.65,1.27-6.64ZM5.17,165.61l8.76.56-.42,6.74-8.77-.55.43-6.75ZM4.74,187.64l8.77-.55.42,6.74-8.76.56-.43-6.75ZM7.08,209.55l8.63-1.65,1.27,6.64-8.63,1.65-1.27-6.64ZM12.15,230.98l8.35-2.71,2.09,6.43-8.35,2.71-2.09-6.43ZM19.86,251.62l7.95-3.74,2.88,6.12-7.95,3.74-2.88-6.12ZM33.72,276.83l-3.62-5.7,7.42-4.71,3.62,5.71-7.42,4.7ZM47.01,294.4l-4.31-5.2,6.77-5.6,4.31,5.2-6.77,5.6ZM62.4,310.17l-4.93-4.63,6.02-6.4,4.92,4.63-6.01,6.4ZM79.64,323.88l-5.47-3.97,5.17-7.11,5.46,3.98-5.16,7.1ZM98.47,335.33l-5.93-3.26,4.23-7.7,5.93,3.26-4.23,7.7ZM99.38,278.3c-21.43,12.38-48.85,5.03-61.22-16.41-12.38-21.43-5.04-48.85,16.4-61.22,21.44-12.38,48.85-5.04,61.23,16.4,12.38,21.44,5.03,48.85-16.41,61.23ZM118.58,344.32l-6.29-2.49,3.23-8.17,6.29,2.49-3.23,8.17ZM115.52,26.34l-3.23-8.17,6.29-2.49,3.23,8.17-6.29,2.49ZM139.66,350.72l-6.55-1.68,2.18-8.51,6.55,1.68-2.18,8.51ZM161.37,354.43l-6.71-.84,1.11-8.72,6.7.85-1.1,8.71ZM183.38,355.39h-6.76v-8.78h6.76v8.78ZM198.63,354.43l-1.1-8.71,6.7-.85,1.11,8.72-6.71.84ZM180,343.79c-24.75,0-44.82-20.07-44.82-44.82s20.07-44.83,44.82-44.83,44.82,20.07,44.82,44.83-20.07,44.82-44.82,44.82ZM220.35,350.72l-2.19-8.51,6.55-1.68,2.18,8.51-6.54,1.68ZM224.71,19.47l-6.55-1.68,2.18-8.51,6.55,1.68-2.18,8.51ZM241.42,344.32l-3.23-8.17,6.28-2.49,3.24,8.17-6.29,2.49ZM261.53,335.33l-4.23-7.7,5.93-3.26,4.23,7.7-5.93,3.26ZM280.36,323.88l-5.17-7.1,5.47-3.98,5.17,7.11-5.47,3.97ZM297.6,310.17l-6.01-6.4,4.93-4.63,6.01,6.4-4.93,4.63ZM260.62,278.3c-21.44-12.38-28.79-39.79-16.41-61.23s39.79-28.78,61.23-16.4c21.44,12.37,28.78,39.79,16.4,61.22-12.37,21.44-39.79,28.79-61.22,16.41ZM312.99,294.4l-6.77-5.6,4.31-5.2,6.77,5.59-4.31,5.21ZM326.28,276.83l-7.42-4.7,3.62-5.71,7.42,4.71-3.62,5.7ZM337.26,257.74l-7.95-3.74,2.88-6.12,7.95,3.74-2.88,6.12ZM345.76,237.41l-8.35-2.71,2.09-6.43,8.35,2.71-2.09,6.43ZM351.65,216.19l-8.63-1.65,1.27-6.64,8.63,1.64-1.27,6.65ZM354.83,194.39l-8.76-.56.42-6.74,8.77.55-.43,6.75Z"/>
    </g>
  </g>
</svg>